<?xml version="1.0" encoding="utf-8"?><svg xmlns="http://www.w3.org/2000/svg" xmlns:xlink="http://www.w3.org/1999/xlink"><symbol viewBox="0 0 20 20" id="email" xmlns="http://www.w3.org/2000/svg"><path d="M13.257 10.102L20 14.365V5.66l-6.743 4.442zM0 5.66v8.705l6.742-4.263L0 5.66zm18.75-2.535H1.25c-.624 0-1.119.465-1.212 1.064L10 10.752l9.963-6.563c-.094-.599-.59-1.064-1.213-1.064zm-6.637 7.732l-1.77 1.166a.625.625 0 01-.687 0l-1.768-1.167L.04 15.82c.096.594.589 1.055 1.21 1.055h17.5c.621 0 1.114-.461 1.21-1.055l-7.847-4.963z" opacity=".5"/></symbol><symbol viewBox="0 0 420 134" id="logo" xmlns="http://www.w3.org/2000/svg"><mask id="ba" maskUnits="userSpaceOnUse" x="0" y="0" width="202" height="120"><path d="M.571 46.02h124.26V0H.571v46.02zm0 73.091h35.117v-73.09H.571v73.09zm35.117 0h166.13v-16.242H35.688v16.242z"/></mask><g mask="url(#ba)"><path fill-rule="evenodd" clip-rule="evenodd" d="M25.197 23.971L57.302 0l62.126 46.697-5.402 4.737h-6.519v-4.527L57.302 9.42 7.097 46.907v4.527H.571v-9.082l11.245-8.393V17.626h13.38v6.345z"/><path d="M17.128 53.047v53.528h119.859v7.122H16.601c-3.73 0-6.753-3.03-6.753-6.768V49.471C25.662 37.941 41.477 26.42 57.291 14.89l47.443 34.582v15.17c-4.029 0-7.287-3.188-7.287-7.129 0-1.737.008-3.374.008-4.465L57.29 23.77 17.128 53.047z"/><path d="M23.532 106.591h171.533v7.106H23.532v-7.106z"/><path d="M189.662 103.884h5.403v12.52h-5.403v-12.52z"/><path fill-rule="evenodd" clip-rule="evenodd" d="M25.197 23.971L57.302 0l62.126 46.697-5.402 4.737h-6.519v-4.527L57.302 9.42 7.097 46.907v4.527H.571v-9.082l11.245-8.393V17.626h13.38v6.345z"/><path d="M17.128 53.047v53.528h119.859v7.122H16.601c-3.73 0-6.753-3.03-6.753-6.768V49.471C25.662 37.941 41.477 26.42 57.291 14.89l47.443 34.582v15.17c-4.029 0-7.287-3.188-7.287-7.129 0-1.737.008-3.374.008-4.465L57.29 23.77 17.128 53.047z"/><path d="M23.532 106.591h171.533v7.106H23.532v-7.106z"/><path d="M189.662 103.884h5.403v12.52h-5.403v-12.52z"/></g><path d="M200.467 103.884h5.403v12.52h-5.403zm5.403 2.707h194.494v7.106H205.87zm201.974 5.753c-1.957 5.767-6.753 9.044-6.753 13.408 0 3.738 3.023 6.895 6.753 6.895 3.729 0 6.753-3.157 6.753-6.895 0-4.364-4.796-7.641-6.753-13.408zM51.322 67.487c0-1.543-.608-2.74-1.823-3.593-1.216-.894-2.897-1.34-5.045-1.34-2.228 0-3.97.365-5.227 1.096-1.215.69-1.823 1.624-1.823 2.802 0 1.015.385 1.868 1.155 2.558.77.65 1.742 1.177 2.917 1.584 1.216.406 2.857.852 4.923 1.34 3.04.73 5.531 1.482 7.476 2.253a12.407 12.407 0 015.045 3.594c1.418 1.624 2.127 3.796 2.127 6.517 0 4.75-1.54 8.243-4.62 10.476-3.038 2.193-7.232 3.29-12.58 3.29-4.863 0-8.895-1.056-12.096-3.168-3.16-2.152-4.74-5.4-4.74-9.745l.06-1.34h8.874l-.06.974c0 1.787.668 3.208 2.005 4.264 1.337 1.015 3.221 1.523 5.652 1.523 2.837 0 4.863-.447 6.078-1.34 1.257-.894 1.885-2.03 1.885-3.411 0-1.056-.385-1.909-1.155-2.558-.73-.69-1.682-1.219-2.857-1.584-1.134-.406-2.735-.853-4.801-1.34-3.08-.772-5.592-1.543-7.537-2.315-1.945-.771-3.627-2.01-5.045-3.715-1.418-1.706-2.127-4-2.127-6.883 0-2.68.73-4.954 2.188-6.822 1.459-1.867 3.404-3.248 5.835-4.141 2.472-.934 5.227-1.401 8.266-1.401 4.66 0 8.468 1.035 11.426 3.106 2.958 2.03 4.437 5.076 4.437 9.136v.731h-8.813v-.548zm40.83 21.745H75.559l-2.918 8.222h-9.056L78.72 55.671h11.184l15.134 41.783h-9.846l-3.04-8.222zm-14.04-7.127H89.66c-1.54-4.588-3.404-10.05-5.592-16.384h-.304l-5.652 16.384zm31.395 15.349V55.671h9.421v33.987h17.139l1.034 7.796h-27.594zm56.719-8.222h-16.592l-2.918 8.222h-9.056l15.134-41.783h11.183l15.135 41.783h-9.847l-3.039-8.222zm-14.04-7.127h11.548a1972.462 1972.462 0 00-5.591-16.384h-.304l-5.653 16.384zm64.225-2.558c0 3.817-.83 7.127-2.492 9.928-1.661 2.802-3.91 4.934-6.746 6.396-2.796 1.462-5.916 2.193-9.36 2.193-3.444 0-6.584-.731-9.421-2.193-2.796-1.462-5.024-3.594-6.686-6.396-1.661-2.801-2.491-6.11-2.491-9.928v-5.969c0-3.817.83-7.126 2.491-9.928 1.662-2.802 3.89-4.934 6.686-6.396 2.837-1.461 5.977-2.192 9.421-2.192 3.444 0 6.564.73 9.36 2.192 2.836 1.462 5.085 3.594 6.746 6.396 1.662 2.802 2.492 6.111 2.492 9.928v5.97zm-9.846-7.309c0-3.086-.81-5.462-2.431-7.126-1.621-1.706-3.728-2.558-6.321-2.558-2.593 0-4.7.852-6.321 2.558-1.621 1.665-2.431 4.04-2.431 7.126v8.65c0 3.085.81 5.48 2.431 7.186 1.621 1.665 3.728 2.498 6.321 2.498 2.593 0 4.7-.833 6.321-2.498 1.621-1.705 2.431-4.1 2.431-7.187v-8.649zm22.185 11.329v2.497c0 1.219.446 2.274 1.337 3.168.892.893 1.925 1.34 3.1 1.34 1.337 0 2.431-.406 3.282-1.219.891-.852 1.337-1.949 1.337-3.289V55.671h9.178v30.637c0 3.736-1.216 6.64-3.647 8.71-2.431 2.03-5.592 3.046-9.481 3.046h-1.216c-3.89 0-6.99-1.016-9.299-3.046-2.269-2.03-3.404-4.934-3.404-8.71v-2.74h8.813zm51.319 5.665h-16.593l-2.917 8.222h-9.057l15.134-41.783h11.184l15.134 41.783h-9.846l-3.039-8.222zm-14.04-7.127h11.548c-1.54-4.588-3.404-10.05-5.592-16.384h-.304l-5.652 16.384zm48.595-18.881v34.23h-9.299v-34.23h-11.852V55.67h32.943v7.553h-11.792zm16.632 34.23V55.671h29.357l-1.034 7.492h-19.084v9.136h17.808v7.492h-17.808v10.172h19.267l1.033 7.491h-29.539zm55.835-36.424c-3.525 0-6.219 1.32-8.083 3.96-1.864 2.64-2.796 6.253-2.796 10.842 0 4.629.851 8.222 2.553 10.78 1.742 2.518 4.518 3.777 8.326 3.777 1.783 0 3.546-.203 5.288-.61 1.783-.405 3.708-.974 5.774-1.705v7.736a30.857 30.857 0 01-5.652 1.705c-1.864.366-3.951.549-6.261.549-4.457 0-8.144-.914-11.061-2.741-2.877-1.868-5.005-4.467-6.382-7.797-1.378-3.37-2.067-7.289-2.067-11.755 0-4.386.79-8.264 2.371-11.634 1.58-3.37 3.869-6.01 6.868-7.918 3.039-1.909 6.746-2.863 11.122-2.863 2.148 0 4.295.284 6.443.853a32.645 32.645 0 016.26 2.193l-2.978 7.492a46.453 46.453 0 00-4.923-2.01c-1.621-.569-3.221-.853-4.802-.853z"/></symbol><symbol viewBox="0 0 191 62" id="logo_footer" xmlns="http://www.w3.org/2000/svg"><mask id="ca" maskUnits="userSpaceOnUse" x="0" y="0" width="92" height="56"><path d="M.442 21.293h56.455V0H.442v21.293zm0 33.818h15.955V21.293H.442V55.11zm15.955 0h75.477v-7.515H16.397v7.515z"/></mask><g mask="url(#ca)"><path fill-rule="evenodd" clip-rule="evenodd" d="M11.63 11.091L26.216 0l28.226 21.606-2.455 2.192h-2.961v-2.095L26.216 4.36 3.406 21.703v2.095H.443v-4.202l5.109-3.884V8.155h6.08v2.936z"/><path d="M7.964 24.544V49.31H62.42v3.295H7.725c-1.695 0-3.068-1.402-3.068-3.131V22.89c7.185-5.335 14.37-10.666 21.555-16.001l21.554 16v7.02a3.302 3.302 0 01-3.31-3.299c0-.804.003-1.561.003-2.066L26.21 10.998 7.965 24.544z"/><path d="M10.874 49.318h77.932v3.288H10.874v-3.288z"/><path d="M86.351 48.066h2.455v5.793H86.35v-5.793z"/><path fill-rule="evenodd" clip-rule="evenodd" d="M11.63 11.091L26.216 0l28.226 21.606-2.455 2.192h-2.961v-2.095L26.216 4.36 3.406 21.703v2.095H.443v-4.202l5.109-3.884V8.155h6.08v2.936z"/><path d="M7.964 24.544V49.31H62.42v3.295H7.725c-1.695 0-3.068-1.402-3.068-3.131V22.89c7.185-5.335 14.37-10.666 21.555-16.001l21.554 16v7.02a3.302 3.302 0 01-3.31-3.299c0-.804.003-1.561.003-2.066L26.21 10.998 7.965 24.544z"/><path d="M10.874 49.318h77.932v3.288H10.874v-3.288z"/><path d="M86.351 48.066h2.455v5.793H86.35v-5.793z"/></g><path d="M91.261 48.066h2.455v5.793h-2.455z"/><path d="M93.715 49.318h88.364v3.288H93.715zm91.762 2.662c-.889 2.668-3.068 4.185-3.068 6.204 0 1.73 1.373 3.19 3.068 3.19 1.694 0 3.068-1.46 3.068-3.19 0-2.02-2.179-3.536-3.068-6.204zM23.5 31.225c0-.713-.277-1.268-.829-1.662-.552-.414-1.316-.62-2.292-.62-1.012 0-1.804.169-2.375.507-.552.32-.828.752-.828 1.296 0 .47.175.865.525 1.184.35.3.791.545 1.325.733.552.188 1.298.394 2.237.62 1.38.338 2.513.685 3.396 1.042a5.641 5.641 0 012.292 1.663c.645.752.967 1.757.967 3.016 0 2.198-.7 3.814-2.099 4.847-1.38 1.014-3.286 1.522-5.716 1.522-2.209 0-4.04-.489-5.495-1.466-1.436-.995-2.154-2.498-2.154-4.509l.028-.62h4.031l-.027.451c0 .827.303 1.484.91 1.973.608.47 1.464.704 2.569.704 1.289 0 2.21-.206 2.761-.62.571-.413.856-.939.856-1.578 0-.488-.175-.883-.524-1.183-.332-.32-.764-.564-1.298-.733-.516-.188-1.243-.395-2.182-.62-1.399-.357-2.54-.714-3.424-1.071-.883-.357-1.647-.93-2.292-1.72-.644-.788-.966-1.85-.966-3.184 0-1.24.331-2.292.994-3.156.663-.864 1.546-1.503 2.65-1.916 1.124-.433 2.376-.649 3.756-.649 2.117 0 3.848.48 5.192 1.438 1.344.939 2.015 2.348 2.015 4.227v.338H23.5v-.254zm18.55 10.061h-7.54l-1.325 3.805h-4.114l6.876-19.333h5.08l6.877 19.333H43.43l-1.38-3.805zm-6.38-3.297h5.247c-.7-2.123-1.546-4.65-2.54-7.58h-.138l-2.568 7.58zm14.264 7.101V25.759h4.28v15.726h7.788l.469 3.607H49.934zm25.77-3.804h-7.539l-1.325 3.805h-4.115l6.876-19.333h5.08l6.877 19.333h-4.474l-1.38-3.805zm-6.38-3.297h5.247c-.7-2.123-1.546-4.65-2.54-7.58h-.138l-2.568 7.58zm29.18-1.184c0 1.767-.377 3.298-1.132 4.594-.755 1.296-1.777 2.283-3.065 2.96-1.27.675-2.688 1.014-4.253 1.014-1.564 0-2.991-.338-4.28-1.015-1.27-.676-2.283-1.663-3.037-2.959-.755-1.296-1.132-2.828-1.132-4.594v-2.761c0-1.766.377-3.298 1.132-4.594.754-1.296 1.767-2.283 3.037-2.96 1.289-.675 2.716-1.014 4.28-1.014 1.565 0 2.983.338 4.253 1.015 1.288.676 2.31 1.663 3.065 2.959.755 1.296 1.132 2.828 1.132 4.594v2.761zm-4.473-3.381c0-1.428-.369-2.527-1.105-3.298-.736-.789-1.694-1.183-2.872-1.183s-2.135.394-2.872 1.183c-.736.77-1.104 1.87-1.104 3.298v4.001c0 1.428.368 2.537 1.104 3.326.737.77 1.694 1.155 2.872 1.155s2.136-.385 2.872-1.155c.736-.79 1.105-1.898 1.105-3.326v-4.001zm10.079 5.241v1.156c0 .564.202 1.052.607 1.465.405.414.875.62 1.409.62.607 0 1.104-.188 1.491-.563.405-.395.607-.902.607-1.522V25.758h4.17v14.176c0 1.728-.552 3.071-1.657 4.03-1.104.939-2.54 1.409-4.308 1.409h-.552c-1.767 0-3.175-.47-4.225-1.41-1.031-.939-1.546-2.282-1.546-4.03v-1.268h4.004zm23.315 2.621h-7.538l-1.326 3.805h-4.114l6.876-19.333h5.081l6.875 19.333h-4.473l-1.381-3.805zm-6.379-3.297h5.247a917.058 917.058 0 00-2.54-7.58h-.138l-2.569 7.58zm22.079-8.736V45.09H138.9V29.253h-5.385v-3.495h14.967v3.495h-5.357zm7.556 15.837V25.759h13.337l-.469 3.466h-8.671v4.228h8.091v3.466h-8.091v4.706h8.754l.469 3.467h-13.42zm25.367-16.852c-1.601 0-2.825.61-3.672 1.832-.847 1.221-1.27 2.893-1.27 5.016 0 2.142.386 3.805 1.159 4.989.792 1.164 2.053 1.747 3.783 1.747.81 0 1.611-.094 2.403-.282a23.06 23.06 0 002.623-.79v3.58a13.9 13.9 0 01-2.568.79c-.847.168-1.795.253-2.844.253-2.025 0-3.7-.423-5.026-1.268-1.307-.865-2.273-2.067-2.899-3.608-.626-1.56-.939-3.372-.939-5.439 0-2.029.359-3.823 1.077-5.383.718-1.559 1.758-2.78 3.12-3.663 1.381-.883 3.065-1.325 5.053-1.325.976 0 1.952.132 2.928.395a14.65 14.65 0 012.844 1.014l-1.353 3.467a20.894 20.894 0 00-2.237-.93 6.457 6.457 0 00-2.182-.395z"/></symbol><symbol viewBox="0 0 20 20" id="phone" xmlns="http://www.w3.org/2000/svg"><g clip-path="url(#dclip0)" opacity=".5"><path d="M19.612 15.903l-2.218-1.478-1.97-1.314a.873.873 0 00-1.173.19l-1.22 1.568a.869.869 0 01-1.109.23c-.827-.46-1.806-.893-3.965-3.055C5.797 9.882 5.36 8.906 4.9 8.078a.869.869 0 01.23-1.109l1.568-1.22a.873.873 0 00.19-1.172l-1.273-1.91L4.097.389A.873.873 0 002.922.124L1.17 1.175A2.14 2.14 0 00.2 2.433c-.48 1.746-.576 5.598 5.598 11.771 6.173 6.174 10.025 6.077 11.77 5.598a2.14 2.14 0 001.258-.972l1.051-1.751a.873.873 0 00-.264-1.176zm-8.232-12.8a5.869 5.869 0 015.861 5.862.345.345 0 00.69 0 6.559 6.559 0 00-6.552-6.551.345.345 0 000 .69z"/><path d="M11.38 5.172a3.797 3.797 0 013.792 3.793.345.345 0 00.69 0 4.488 4.488 0 00-4.483-4.482.345.345 0 000 .69z"/><path d="M11.38 7.241a1.726 1.726 0 011.723 1.724.345.345 0 00.69 0 2.417 2.417 0 00-2.414-2.413.345.345 0 000 .69z"/></g><defs><clipPath id="dclip0"><path d="M0 0h20v20H0z"/></clipPath></defs></symbol><symbol viewBox="0 0 20 20" id="post" xmlns="http://www.w3.org/2000/svg"><g opacity=".5"><rect y="3" width="20" height="13" rx="2"/><path d="M8.104 13H3v-1.168l2.837-4.305h-2.77V6h4.966v1.163l-2.837 4.31h2.908V13zm.941 0V6h1.78v7h-1.78zM17 8.226c0 .782-.217 1.387-.65 1.815-.43.425-1.043.637-1.837.637h-.498V13h-1.77V6h2.268c.827 0 1.449.193 1.864.58.415.386.623.935.623 1.646zm-2.985.91h.323c.266 0 .477-.08.632-.24.158-.159.237-.38.237-.66 0-.472-.245-.709-.735-.709h-.457v1.61z"/></g></symbol><symbol viewBox="0 0 20 20" id="user" xmlns="http://www.w3.org/2000/svg"><path fill-rule="evenodd" clip-rule="evenodd" d="M19.124 16.107c-.596-1.19-2.554-1.906-5.264-2.899-.383-.14-.781-.286-1.193-.44v-2.155a4.12 4.12 0 001.023-2.546c.189-.144.34-.416.426-.785.138-.585.065-1.281-.366-1.669l.099-.251c.318-.803.912-2.3.68-3.461C14.267.587 12.355 0 10.577 0c-1.3 0-2.881.325-3.332 1.223-.5.046-.882.244-1.139.59-.705.949-.183 2.671.097 3.596l.058.193c-.442.385-.518 1.089-.378 1.68.087.369.238.64.426.785.066 1.342.736 2.134 1.024 2.414v2.287c-.413.154-.812.3-1.196.44-2.71.993-4.668 1.71-5.262 2.899A8.785 8.785 0 000 19.667c0 .183.149.333.333.333h19.334c.184 0 .333-.15.333-.333 0-.074-.01-1.828-.876-3.56z" fill-opacity=".5"/></symbol></svg>