<svg width="20" height="20" viewBox="0 0 20 20" fill="none" xmlns="http://www.w3.org/2000/svg">
<g opacity="0.5">
<path d="M13.2573 10.1025L19.9997 14.365V5.65997L13.2573 10.1025Z" fill="#424753"/>
<path d="M0 5.65997V14.365L6.7425 10.1025L0 5.65997Z" fill="#424753"/>
<path d="M18.7501 3.125H1.2501C0.626348 3.125 0.131348 3.59 0.0375977 4.18875L10.0001 10.7525L19.9626 4.18875C19.8688 3.59 19.3738 3.125 18.7501 3.125Z" fill="#424753"/>
<path d="M12.1126 10.8575L10.3439 12.0225C10.2389 12.0912 10.1201 12.125 10.0001 12.125C9.88013 12.125 9.76138 12.0912 9.65638 12.0225L7.88763 10.8562L0.0401306 15.82C0.136381 16.4137 0.628881 16.875 1.25013 16.875H18.7501C19.3714 16.875 19.8639 16.4137 19.9601 15.82L12.1126 10.8575Z" fill="#424753"/>
</g>
</svg>
