<svg width="97" height="90" viewBox="0 0 97 90" fill="none" xmlns="http://www.w3.org/2000/svg">
<rect width="85" height="85" rx="5" fill="#7BDD69"/>
<path d="M23.4551 57.2285C23.4551 74.4108 37.3544 88.3398 54.5 88.3398C71.6456 88.3398 85.5449 74.4108 85.5449 57.2285C85.5449 49.7801 82.9317 42.944 78.5758 37.588H78.5779L54.6102 6.66016L30.537 37.4258H30.5551C26.12 42.8057 23.4551 49.7052 23.4551 57.2285Z" fill="white"/>
<path d="M32 59.052C32 75.0395 44.0883 88 59 88C73.9117 88 86 75.0395 86 59.052C86 52.1215 83.7272 45.7608 79.9389 40.7773H79.9407L59.0959 12L38.1592 40.6264H38.1749C34.3177 45.6322 32 52.0518 32 59.052Z" fill="#78B8FF"/>
<path d="M29.9682 51.8759C29.9591 51.9891 26.1241 63.4586 36.1392 73.4738C46.1542 83.489 57.7366 79.6443 57.7366 79.6443C57.7366 79.6443 61.5812 68.062 51.5662 58.0468C41.5511 48.0316 29.9682 51.8759 29.9682 51.8759Z" fill="#59AA33"/>
<path d="M57.4338 58.0468C47.4185 68.0621 51.2633 79.6443 51.2633 79.6443C51.2633 79.6443 62.8455 83.4889 72.8608 73.4738C82.876 63.4588 79.041 51.9889 79.0317 51.8759C79.0317 51.8759 67.4488 48.0316 57.4338 58.0468Z" fill="white"/>
<path d="M58.6072 58.3724C49.011 67.6271 52.6949 78.3299 52.6949 78.3299C52.6949 78.3299 63.7926 81.8825 73.3888 72.6279C82.985 63.3734 79.3105 52.7745 79.3016 52.67C79.3016 52.67 68.2033 49.1176 58.6072 58.3724Z" fill="#A3ED5C"/>
<path d="M79.9122 36.6004C79.9049 36.5904 79.8976 36.5808 79.8899 36.5709L55.9224 5.64331C55.6088 5.23856 55.126 5.00116 54.6141 5C54.6127 5 54.6114 5 54.6102 5C54.0997 5 53.6175 5.23491 53.3027 5.63717L29.2294 36.4029C29.1924 36.4502 29.1582 36.4991 29.127 36.5494C24.3971 42.3714 21.7949 49.7054 21.7949 57.2285C21.7949 75.2987 36.4664 90 54.5 90C72.5336 90 87.2051 75.2987 87.2051 57.2285C87.2051 49.7344 84.6157 42.4121 79.9122 36.6004ZM54.5 86.6797C38.2972 86.6797 25.1152 73.468 25.1152 57.2285C25.1152 50.3968 27.502 43.7391 31.8359 38.482C31.8917 38.4145 31.9413 38.3434 31.9848 38.2695L54.6039 9.36223L77.2191 38.5446C77.2408 38.5755 77.2637 38.6057 77.2878 38.6353C81.542 43.8662 83.8848 50.4695 83.8848 57.2285C83.8848 73.468 70.7028 86.6797 54.5 86.6797Z" fill="black"/>
<path d="M80.6463 51.4877L80.642 51.4724C80.5057 50.9274 80.0993 50.481 79.5544 50.3C79.4236 50.2567 76.2955 49.2397 71.8722 49.5495C67.8057 49.8348 61.796 51.3368 56.2598 56.8729C52.1461 60.9866 50.2608 65.3609 49.4461 69.0061L41.0321 60.5921C40.3837 59.944 39.3328 59.944 38.6842 60.5921C38.0359 61.2404 38.0359 62.2916 38.6842 62.9401L48.5175 72.7734C48.6347 72.8906 48.7653 72.9857 48.9039 73.0606C48.7149 77.1778 49.6459 80.0422 49.6874 80.1674C49.8526 80.6648 50.2427 81.0549 50.7401 81.2201C50.8538 81.2578 53.2253 82.0297 56.7437 82.0296C57.2779 82.0296 57.8391 82.0118 58.4221 81.9708C62.4887 81.6857 68.4983 80.1838 74.0346 74.6479C83.837 64.8451 81.262 53.6353 80.6463 51.4877ZM71.6866 72.2999C67.8616 76.1249 63.3677 78.2608 58.3296 78.6483C56.9298 78.7561 55.679 78.7068 54.6539 78.6013L71.1283 62.127C71.7766 61.4787 71.7766 60.4275 71.1283 59.779C70.4798 59.1309 69.429 59.1309 68.7803 59.779L52.3059 76.2534C52.2005 75.2279 52.151 73.9772 52.2588 72.5776C52.6463 67.5396 54.7822 63.0457 58.6074 59.2207C62.4324 55.3955 66.9264 53.2596 71.9645 52.8719C74.5135 52.675 76.5739 52.9993 77.663 53.2362C78.3252 56.2547 79.2732 64.7133 71.6866 72.2999Z" fill="black"/>
<path d="M43.6095 76.789C41.3464 75.7252 39.2279 74.2148 37.313 72.3C29.7249 64.7119 30.6751 56.2511 31.3368 53.2344C33.867 52.6814 41.6459 51.6732 48.9245 57.8654C49.6231 58.4596 50.6706 58.3749 51.2648 57.6765C51.8588 56.978 51.7743 55.9303 51.0759 55.3362C40.8641 46.6492 29.9069 50.147 29.445 50.3001C28.9002 50.481 28.4939 50.9274 28.3575 51.4726L28.3533 51.4877C27.7376 53.6355 25.1627 64.8454 34.9651 74.6479C37.1523 76.835 39.5854 78.5664 42.197 79.7939C42.4253 79.9012 42.6655 79.9521 42.9021 79.952C43.5255 79.952 44.123 79.5992 44.4057 78.9977C44.7958 78.168 44.4392 77.179 43.6095 76.789Z" fill="black"/>
<path d="M65.0407 35.2275C65.368 35.6498 65.8584 35.8708 66.3541 35.8708C66.7094 35.8708 67.0675 35.7572 67.3698 35.5228C68.0946 34.9612 68.2267 33.9184 67.6651 33.1938L58.1282 20.8872C57.5665 20.1622 56.5233 20.03 55.7991 20.5918C55.0743 21.1535 54.9422 22.1962 55.5038 22.9209L65.0407 35.2275Z" fill="black"/>
<path d="M68.2818 39.4104L68.3288 39.471C68.656 39.893 69.1463 40.1138 69.6418 40.1138C69.9973 40.1138 70.3554 40.0001 70.658 39.7655C71.3825 39.2037 71.5145 38.1608 70.9525 37.4363L70.9056 37.3757C70.3438 36.6512 69.3012 36.5194 68.5763 37.0812C67.8519 37.643 67.7199 38.6859 68.2818 39.4104Z" fill="black"/>
</svg>
