<svg width="102" height="87" viewBox="0 0 102 87" fill="none" xmlns="http://www.w3.org/2000/svg">
<rect width="85" height="85" rx="5" fill="#7BDD69"/>
<g clip-path="url(#clip0)">
<path d="M80.1521 51.4681C80.1521 36.2472 67.8455 23.9082 52.6648 23.9082C37.4841 23.9082 25.1782 36.2472 25.1782 51.4681C25.1782 66.689 37.4841 79.028 52.6648 79.028C67.8455 79.028 80.1521 66.689 80.1521 51.4681Z" fill="#97C9E8"/>
<path d="M52.6648 23.9082C51.2543 23.9082 49.8685 24.0152 48.5144 24.2208C61.7256 26.2273 71.8506 37.6616 71.8506 51.4681C71.8506 65.274 61.7256 76.709 48.5144 78.7154C49.8685 78.921 51.2543 79.028 52.6648 79.028C67.8455 79.028 80.1521 66.689 80.1521 51.4681C80.1521 36.2472 67.8455 23.9082 52.6648 23.9082Z" fill="#60B6FF"/>
<path d="M49.0922 34.6188C44.8581 37.2718 41.6825 41.5176 44.0644 46.2937C46.4457 51.0699 51.7387 49.2126 56.6349 48.5492C61.5304 47.8858 57.8255 63.0101 60.7366 66.7253C63.6477 70.4399 71.8512 63.0101 71.0575 58.2339C69.8824 51.1627 69.47 48.6815 78.9971 43.6401L79.023 43.631C75.8116 32.757 66.0913 24.689 54.3865 23.9633L54.3852 24.0049C54.3852 24.0049 53.3269 31.9652 49.0922 34.6188Z" fill="#BAEB6C"/>
<path d="M69.887 29.9898C69.8883 29.9911 69.8903 29.9925 69.8923 29.9938C69.8903 29.9925 69.889 29.9911 69.887 29.9898Z" fill="#BAEB6C"/>
<path d="M73.2476 33.2045C73.2482 33.2051 73.2489 33.2058 73.2489 33.2058C73.2489 33.2058 73.2482 33.2051 73.2476 33.2045Z" fill="#BAEB6C"/>
<path d="M34.4051 63.9387C33.1334 61.9997 36.6541 57.4382 37.4485 53.9888C38.2422 50.5395 33.4784 50.8047 32.0231 49.6108C30.5672 48.4163 28.5828 43.2426 27.127 42.0487L26.8941 41.8645C25.7852 44.8554 25.1782 48.0901 25.1782 51.4681C25.1782 60.5776 29.5867 68.6533 36.381 73.6714L36.3895 73.0936C36.3895 73.0936 37.4485 68.5826 34.4051 63.9387Z" fill="#BAEB6C"/>
<path d="M71.0575 58.2339C71.0517 58.1995 71.0459 58.1658 71.0407 58.1308C70.5141 60.2559 69.7424 62.2831 68.7567 64.1806C70.3208 62.3357 71.3656 60.0854 71.0575 58.2339Z" fill="#BAEB6C"/>
<path d="M54.3866 23.9633L54.3853 24.0049C54.3853 24.0049 54.2964 24.6696 54.0695 25.6773C63.7081 29.3258 70.7651 38.2485 71.7359 48.9364C72.9505 47.2749 75.1722 45.6641 78.9971 43.6401L79.023 43.631C75.811 32.757 66.0907 24.689 54.3866 23.9633Z" fill="#96D629"/>
<path d="M45.069 33.3666C31.7761 31.1111 23.5304 14.3753 23.5304 14.3753C23.5304 14.3753 36.8356 1.29575 50.1279 3.55058C63.4202 5.80606 71.6658 22.5419 71.6658 22.5419C71.6658 22.5419 58.3606 35.6214 45.069 33.3666Z" fill="#49CB5C"/>
<path d="M50.1279 3.55115C47.5897 3.12055 45.0521 3.25025 42.606 3.73986C55.3418 6.59974 63.199 22.5418 63.199 22.5418C63.199 22.5418 54.489 31.102 44.1234 33.1772C44.436 33.2478 44.7505 33.312 45.069 33.3665C58.3606 35.6213 71.6658 22.5418 71.6658 22.5418C71.6658 22.5418 63.4202 5.80598 50.1279 3.55115Z" fill="#07B128"/>
<path d="M80.7066 17.1217C84.2727 8.68409 96.6272 5.84302 96.6272 5.84302C96.6272 5.84302 103.201 16.6827 99.6356 25.1203C96.0702 33.5579 83.715 36.3983 83.715 36.3983C83.715 36.3983 77.1411 25.5593 80.7066 17.1217Z" fill="#49CB5C"/>
<path d="M96.6279 5.84302C96.6279 5.84302 93.8179 6.49022 90.4918 8.08099C92.198 11.6964 94.9035 19.0328 92.3309 25.1203C90.4652 29.534 86.1948 32.4159 82.5457 34.161C83.2046 35.5566 83.715 36.3983 83.715 36.3983C83.715 36.3983 96.0702 33.5579 99.6356 25.1203C103.202 16.6827 96.6279 5.84302 96.6279 5.84302Z" fill="#07B128"/>
<path d="M100.656 11.9065C99.4276 8.04473 97.7635 5.27953 97.6928 5.16345C97.4198 4.71339 96.8582 4.47929 96.3492 4.59602C96.2175 4.6265 93.0742 5.35995 89.4491 7.17056C84.5549 9.6141 81.136 12.876 79.5608 16.603C78.2496 19.706 78.0615 23.5004 78.9914 27.6917C77.0103 25.479 74.7814 23.5432 72.3521 21.9135C71.6102 20.4479 69.6485 16.8397 66.5818 13.0687C65.5721 11.8274 63.6292 13.3851 64.6492 14.6393C66.716 17.1808 68.2711 19.6801 69.2439 21.3973L57.9016 19.1866L47.1249 4.48707C48.1715 4.50198 49.2215 4.60315 50.2662 4.80807C53.5787 5.45657 56.8511 7.14332 59.993 9.82162C61.2245 10.8709 62.8231 8.96106 61.6084 7.92606C58.137 4.96761 54.4821 3.09604 50.7448 2.36388C45.0393 1.24717 38.3851 2.71278 31.4999 6.60377C26.3677 9.50385 22.9359 12.6893 22.7926 12.8235C22.3334 13.2522 22.2601 14.0317 22.6447 14.533C23.1479 15.5654 25.0552 19.2897 28.2296 23.2994C30.1011 25.6638 32.0745 27.6871 34.116 29.3499C33.5362 29.8356 32.9714 30.344 32.4254 30.879C29.5078 33.7331 27.2737 37.0994 25.8068 40.7797C24.5104 44.0319 23.8133 47.5299 23.7744 51.1355C23.7102 57.0317 25.4183 62.7184 28.7159 67.5815C31.937 72.3317 36.4402 75.9789 41.7384 78.128C43.2209 78.7285 44.1586 76.4224 42.6749 75.8206C40.7553 75.0418 38.9518 74.0444 37.2884 72.8576C37.5012 71.678 37.9947 67.4323 35.1743 63.0368C34.7794 62.422 35.9597 60.0076 36.6646 58.5654C37.3916 57.079 38.1425 55.5421 38.4934 54.0953C38.8656 52.5583 38.4467 51.2678 37.282 50.3625C36.4266 49.6978 35.3079 49.3541 34.3216 49.0506C33.6808 48.8535 32.9545 48.6304 32.6951 48.4138C32.1608 47.9663 31.2879 46.312 30.5869 44.9832C29.8087 43.5092 29.0674 42.1065 28.3113 41.2427C30.0136 37.1999 32.7477 33.6228 36.1717 30.8862C39.2994 33.0171 42.8694 34.4873 46.6638 34.7849C42.2631 38.1947 40.8396 42.5488 42.8746 46.7316C45.2507 51.6154 50.141 50.8353 54.4561 50.1479C55.2026 50.0285 55.9749 49.9053 56.7149 49.8132C56.9924 49.7782 57.0761 49.8541 57.1319 49.9034C58.0767 50.7438 58.0488 54.758 58.0287 57.6893C58.0008 61.7437 57.9749 65.5731 59.4853 67.5393C60.2557 68.5419 61.3406 69.0542 62.6123 69.0542C63.3743 69.0542 64.2024 68.8707 65.0708 68.4984C68.8262 66.8902 72.7302 62.0498 72.1349 58.2197C71.6141 54.8715 71.2698 52.6595 72.0817 50.8761C72.8326 49.2257 74.6471 47.6978 78.221 45.7485C78.649 47.6758 78.865 49.681 78.8429 51.738C78.7664 58.7593 75.9597 65.3312 70.9403 70.2416C65.3308 75.7292 57.4464 78.4393 49.6475 77.58C48.0581 77.4075 47.7837 79.8802 49.3752 80.0553C57.912 80.9957 66.5429 78.0281 72.6815 72.0217C78.1769 66.6457 81.2495 59.4519 81.3332 51.7646C81.4441 41.5715 76.2139 32.5411 68.2523 27.3395C69.8975 26.1664 71.1232 25.1521 71.8028 24.5633C74.7055 26.6456 77.2801 29.2111 79.422 32.2C84.5646 39.3763 86.6042 48.1252 85.1658 56.8358C82.1957 74.8168 65.1518 87.0306 47.1677 84.0598C38.4564 82.6208 30.8275 77.877 25.6849 70.7007C20.5423 63.5245 18.5027 54.7749 19.9411 46.0649C20.1999 44.4975 17.744 44.0863 17.4846 45.659C15.9373 55.0259 18.1311 64.4343 23.6602 72.1514C29.19 79.8679 37.3948 84.9697 46.7617 86.517C48.7208 86.8406 50.6819 87.0001 52.6293 87.0001C59.9911 87.0001 67.1525 84.7141 73.2555 80.3413C80.9733 74.8116 86.0756 66.6081 87.6223 57.2411C88.7559 50.3774 87.8785 43.4917 85.1541 37.2648C86.4116 36.8938 88.5516 36.174 90.8953 35.0035C95.7888 32.5599 99.2084 29.298 100.783 25.5711C102.359 21.8435 102.315 17.1185 100.656 11.9065ZM28.3839 46.1453C29.3106 47.9021 30.1867 49.5623 31.0972 50.3236C31.7418 50.8625 32.6394 51.1388 33.5894 51.4306C36.0232 52.179 36.306 52.546 36.0725 53.5084C35.7859 54.6919 35.0952 56.105 34.4273 57.4714C33.1413 60.1023 31.9267 62.5867 33.0777 64.3818C34.7107 66.9258 34.9902 69.4303 34.9623 70.9887C27.5454 64.3007 24.5253 53.7373 27.2879 44.1363C27.6543 44.764 28.0396 45.4936 28.3839 46.1453ZM88.6294 21.6749L85.0906 13.0991C86.8123 11.4889 88.8104 10.2769 90.512 9.42344C91.9614 8.69647 93.3408 8.15238 94.4465 7.76717L88.6294 21.6749ZM96.7421 8.73279C97.2369 9.79503 97.8102 11.1653 98.2998 12.7139C98.8368 14.4136 99.3297 16.52 99.4276 18.7171L91.1346 22.1386L96.7421 8.73279ZM81.8546 17.5725C82.2216 16.7041 82.6963 15.8987 83.2449 15.1555L87.2734 24.9167L83.658 33.5606C83.1503 32.4834 82.5523 31.0677 82.0446 29.4601C81.0264 26.241 80.1672 21.5646 81.8546 17.5725ZM89.8317 32.7506C88.4368 33.451 87.1055 33.9808 86.0212 34.3634L89.7727 25.3947L99.3219 21.4544C99.1831 22.5244 98.9192 23.5847 98.4892 24.6016C96.8025 28.5937 92.8505 31.237 89.8317 32.7506ZM44.9316 32.0418C44.4913 31.9555 44.0575 31.8505 43.6295 31.7305L57.4107 21.6282L68.7581 23.8402C64.6246 27.097 54.5644 33.9289 44.9316 32.0418ZM32.3365 24.2507C29.3891 21.0744 27.2289 17.6775 25.9884 15.5031L40.4291 18.3182L32.3365 24.2507ZM34.8871 7.63748L40.9291 15.8786L26.395 13.0453C28.2244 11.6005 31.2451 9.43122 34.8871 7.63748ZM44.5315 16.5809L37.2067 6.5895C39.3993 5.68809 41.7534 4.97928 44.1664 4.66346L54.2992 18.4843L44.5315 16.5809ZM43.7566 18.9667L54.0839 20.9797L40.8292 30.6955C38.3299 29.5412 36.0803 27.8817 34.1121 26.0367L43.7566 18.9667ZM77.5446 43.2829C73.0557 45.6745 70.8573 47.5532 69.8145 49.845C68.6946 52.3054 69.1051 54.9468 69.6732 58.6023C70.0084 60.758 67.4469 64.7715 64.0902 66.2092C62.8484 66.741 61.9638 66.6781 61.4599 66.0218C60.4703 64.7346 60.4976 60.8371 60.519 57.7061C60.5481 53.3741 60.5741 49.633 58.7868 48.0428C58.1442 47.4715 57.3219 47.2296 56.4081 47.3418C55.6254 47.4391 54.831 47.5655 54.0638 47.6881C49.4867 48.4177 46.6061 48.7095 45.1139 45.6421C42.6963 40.6733 47.5905 36.9931 49.8064 35.6416C50.2578 35.3666 50.6767 35.0424 51.0658 34.6812C56.4224 34.0411 61.4839 31.7428 65.9942 28.8641C71.4021 32.095 75.5537 37.2084 77.5446 43.2829Z" fill="black"/>
</g>
<defs>
<clipPath id="clip0">
<rect x="17" y="2" width="85" height="85" fill="white"/>
</clipPath>
</defs>
</svg>
