<svg width="94" height="91" viewBox="0 0 94 91" fill="none" xmlns="http://www.w3.org/2000/svg">
<rect width="85" height="85" rx="5" fill="#7BDD69"/>
<g clip-path="url(#clip0)">
<path d="M92.583 10.2502V86.7499C92.6304 88.2583 91.4531 89.523 89.945 89.5833H18.7212C17.2133 89.523 16.0358 88.2583 16.0833 86.7499V10.2502C16.0358 8.74177 17.2132 7.47707 18.7212 7.41681H89.9452C91.4531 7.47707 92.6304 8.74177 92.583 10.2502Z" fill="#1279ED"/>
<path d="M86.9162 10.2502V86.7499C86.9637 88.2583 85.7863 89.523 84.2782 89.5833H13.0543C11.5464 89.523 10.3689 88.2583 10.4163 86.7499V10.2502C10.3689 8.74177 11.5462 7.47707 13.0543 7.41681H84.2782C85.7863 7.47707 86.9637 8.74177 86.9162 10.2502Z" fill="white"/>
<path d="M88.3335 10.2502V86.7499C88.4056 88.2306 87.273 89.4938 85.7934 89.5833H17.2074C15.7277 89.4938 14.5952 88.2306 14.6672 86.7499V10.2502C14.5952 8.7695 15.7277 7.50629 17.2074 7.41681H85.7934C87.273 7.50629 88.4056 8.7695 88.3335 10.2502Z" fill="#78B8FF"/>
<path d="M89.75 90.9999H13.2503C10.9042 90.9974 9.00286 89.096 9.00037 86.7499V25.8335C9.00037 25.0511 9.63471 24.4169 10.417 24.4169C11.1992 24.4169 11.8336 25.0512 11.8336 25.8335V86.7499C11.8344 87.532 12.4681 88.1658 13.2502 88.1665H89.7499C90.532 88.1657 91.1658 87.532 91.1665 86.7499V10.2502C91.1656 9.46807 90.532 8.83423 89.7499 8.83356H13.2502C12.4681 8.83439 11.8342 9.46807 11.8336 10.2502V14.5002C11.8336 15.2826 11.1992 15.9168 10.417 15.9168C9.63471 15.9168 9.00037 15.2824 9.00037 14.5002V10.2502C9.00286 7.90404 10.9042 6.00267 13.2503 6.00018H89.75C92.0962 6.00267 93.9975 7.90404 94 10.2502V86.7499C93.9975 89.096 92.0962 90.9974 89.75 90.9999Z" fill="black"/>
<path d="M10.4169 21.5835C10.04 21.587 9.67761 21.4389 9.41099 21.1726C9.28581 21.0347 9.18504 20.8766 9.11283 20.705C9.03397 20.5368 8.99545 20.3525 9.0001 20.1667C9.00525 19.7917 9.152 19.4325 9.41099 19.1609C9.5438 19.0297 9.70301 18.9284 9.87799 18.8634C10.2228 18.7209 10.6101 18.7209 10.9549 18.8634C11.1266 18.9352 11.2848 19.0359 11.4226 19.1609C11.5476 19.2987 11.6482 19.4569 11.7201 19.6285C11.8713 19.9713 11.8713 20.362 11.7201 20.7048C11.6479 20.8763 11.5473 21.0343 11.4226 21.1725C11.2848 21.2975 11.1266 21.3981 10.9549 21.47C10.7848 21.5427 10.602 21.5812 10.4169 21.5835Z" fill="black"/>
<path d="M51.5002 83.9165C71.0602 83.9165 86.9167 68.06 86.9167 48.5C86.9167 28.9401 71.0602 13.0836 51.5002 13.0836C31.9402 13.0836 16.0837 28.9401 16.0837 48.5C16.0837 68.06 31.9402 83.9165 51.5002 83.9165Z" fill="#96D629"/>
<path d="M49.3752 83.9165C67.7616 83.9165 82.6667 68.06 82.6667 48.5C82.6667 28.9401 67.7616 13.0836 49.3752 13.0836C30.9888 13.0836 16.0837 28.9401 16.0837 48.5C16.0837 68.06 30.9888 83.9165 49.3752 83.9165Z" fill="#BAEB6C"/>
<path d="M81.1081 45.6669H54.3333V40.0003H80.0031C80.5613 41.847 80.9315 43.7456 81.1081 45.6669Z" fill="#1279ED"/>
<path d="M77.6516 62.6667C76.5416 64.7026 75.201 66.6039 73.6566 68.3333H54.3333V62.6667H77.6516Z" fill="#1279ED"/>
<path d="M81.1081 51.3335C80.9315 53.2548 80.5613 55.1533 80.0031 57.0001H54.3333V51.3335H81.1081Z" fill="#1279ED"/>
<path d="M77.6516 34.3335H54.3333V28.6669H73.6566C75.201 30.3963 76.5416 32.2977 77.6516 34.3335Z" fill="#1279ED"/>
<path d="M48.6665 28.6669V34.3335H25.3482C26.4582 32.2977 27.7988 30.3963 29.3432 28.6669H48.6665Z" fill="#1279ED"/>
<path d="M48.6667 40.0001V45.6667H21.8918C22.0685 43.7454 22.4387 41.8468 22.9968 40.0001H48.6667Z" fill="#1279ED"/>
<path d="M48.6667 51.3335V57.0001H22.9968C22.4387 55.1531 22.0685 53.2546 21.8918 51.3335H48.6667Z" fill="#1279ED"/>
<path d="M48.6665 62.6667V68.3333H29.3432C27.7988 66.6038 26.4582 64.7024 25.3482 62.6667H48.6665Z" fill="#1279ED"/>
<path d="M76.9998 45.6669H54.3333V40.0003H75.8948C76.4529 41.847 76.8231 43.7456 76.9998 45.6669Z" fill="white"/>
<path d="M73.5432 62.6667C72.4332 64.7026 71.0928 66.6039 69.5482 68.3333H54.3333V62.6667H73.5432Z" fill="white"/>
<path d="M76.9998 51.3335C76.8231 53.2548 76.4529 55.1533 75.8948 57.0001H54.3333V51.3335H76.9998Z" fill="white"/>
<path d="M73.5432 34.3335H54.3333V28.6669H69.5482C71.0928 30.3963 72.4332 32.2977 73.5432 34.3335Z" fill="white"/>
<path d="M44.5581 28.6669V34.3335H25.3482C26.4582 32.2977 27.7988 30.3963 29.3432 28.6669H44.5581Z" fill="white"/>
<path d="M44.5584 40.0001V45.6667H21.8918C22.0685 43.7454 22.4387 41.8468 22.9968 40.0001H44.5584Z" fill="white"/>
<path d="M44.5584 51.3335V57.0001H22.9968C22.4387 55.1531 22.0685 53.2546 21.8918 51.3335H44.5584Z" fill="white"/>
<path d="M44.5581 62.6667V68.3333H29.3432C27.7988 66.6038 26.4582 64.7024 25.3482 62.6667H44.5581Z" fill="white"/>
<path d="M84.0828 85.3332H72.7495C71.967 85.3332 71.3329 84.699 71.3329 83.9166C71.3329 83.1342 71.967 82.5 72.7495 82.5H84.0828C84.8649 82.4992 85.4987 81.8655 85.4994 81.0834V69.7501C85.4994 68.9676 86.1336 68.3335 86.916 68.3335C87.6984 68.3335 88.3326 68.9678 88.3326 69.7501V81.0834C88.3303 83.4294 86.4289 85.3306 84.0828 85.3332Z" fill="black"/>
<path d="M30.2496 85.3332H18.9165C16.5703 85.3307 14.669 83.4293 14.6665 81.0832V69.7499C14.6665 68.9674 15.3008 68.3333 16.0831 68.3333C16.8653 68.3333 17.4997 68.9676 17.4997 69.7499V81.0832C17.5005 81.8653 18.1342 82.4991 18.9163 82.4998H30.2496C31.0321 82.4998 31.6662 83.134 31.6662 83.9164C31.6662 84.6988 31.0321 85.3332 30.2496 85.3332Z" fill="black"/>
<path d="M86.9162 28.6669C86.5405 28.667 86.1801 28.5178 85.9143 28.252C85.6487 27.9864 85.4994 27.6259 85.4994 27.2501V15.9169C85.4986 15.1348 84.8649 14.501 84.0828 14.5003H72.7495C71.967 14.5003 71.3329 13.866 71.3329 13.0837C71.3329 12.3014 71.967 11.6671 72.7495 11.6671H84.0828C86.4289 11.6696 88.3303 13.5709 88.3328 15.9171V27.2504C88.3329 27.6261 88.1837 27.9865 87.9179 28.2523C87.6523 28.5176 87.2919 28.6669 86.9162 28.6669Z" fill="black"/>
<path d="M16.0831 28.6668C15.7074 28.667 15.347 28.5178 15.0812 28.252C14.8155 27.9863 14.6663 27.6259 14.6663 27.2501V15.9169C14.6688 13.5708 16.5702 11.6694 18.9163 11.6669H30.2496C31.032 11.6669 31.6662 12.3012 31.6662 13.0835C31.6662 13.8658 31.0319 14.5001 30.2496 14.5001H18.9164C18.1343 14.5009 17.5005 15.1346 17.4998 15.9167V27.2501C17.5 27.6258 17.3508 27.9862 17.085 28.252C16.8192 28.5176 16.4588 28.6668 16.0831 28.6668Z" fill="black"/>
<path d="M51.4995 85.3332C31.1571 85.3332 14.6663 68.8425 14.6663 48.5C14.6663 28.1575 31.1572 11.6669 51.4995 11.6669C71.8419 11.6669 88.3328 28.1577 88.3328 48.5001C88.31 68.833 71.8326 85.3105 51.4995 85.3332ZM51.4995 14.5001C32.7219 14.5001 17.4997 29.7224 17.4997 48.5C17.4997 67.2776 32.7219 82.4998 51.4995 82.4998C70.2772 82.4998 85.4994 67.2776 85.4994 48.5C85.478 29.7313 70.2684 14.5217 51.4995 14.5001Z" fill="black"/>
<path d="M81.1064 47.0834C80.3761 47.0824 79.7662 46.5265 79.6975 45.7996C79.5293 43.9732 79.1777 42.1683 78.6481 40.4124C78.5003 39.9281 78.6223 39.4018 78.968 39.0318C79.3136 38.6617 79.8306 38.5047 80.3237 38.6194C80.8169 38.7341 81.2112 39.1033 81.3583 39.5879C81.9436 41.526 82.3323 43.518 82.5182 45.5341C82.5534 45.9081 82.4385 46.2807 82.199 46.57C81.9594 46.8594 81.6146 47.0415 81.2406 47.0767C81.1961 47.0815 81.1513 47.0838 81.1064 47.0834Z" fill="black"/>
<path d="M73.6553 69.7499C73.097 69.7498 72.5908 69.4215 72.3627 68.912C72.1346 68.4024 72.2272 67.8064 72.599 67.3898C74.0712 65.7415 75.3488 63.9291 76.407 61.9889C76.6481 61.5423 77.1096 61.2589 77.6168 61.2456C78.1241 61.2325 78.5996 61.4917 78.8634 61.9251C79.1272 62.3586 79.1391 62.9 78.8944 63.3446C77.7326 65.4757 76.3295 67.4662 74.7128 69.2768C74.4442 69.5786 74.0592 69.7508 73.6553 69.7499Z" fill="black"/>
<path d="M80.0037 58.4167C79.5546 58.4173 79.1319 58.205 78.8645 57.8442C78.597 57.4835 78.5167 57.0172 78.648 56.5878C79.1776 54.8319 79.529 53.027 79.6974 51.2007C79.7282 50.8248 79.9094 50.4773 80.1999 50.237C80.4904 49.9966 80.8656 49.8837 81.2406 49.9237C81.6147 49.9587 81.9593 50.141 82.199 50.4304C82.4388 50.7197 82.5535 51.0923 82.5183 51.4663C82.3324 53.4822 81.9437 55.4744 81.3582 57.4124C81.1767 58.0084 80.6269 58.4162 80.0037 58.4167Z" fill="black"/>
<path d="M77.6522 35.75C77.1331 35.7508 76.6551 35.4673 76.4071 35.0112C75.3489 33.0709 74.0713 31.2586 72.599 29.6103C72.2589 29.2331 72.1467 28.7027 72.3049 28.2201C72.4631 27.7375 72.8675 27.3764 73.365 27.2738C73.8624 27.1712 74.3767 27.3427 74.7131 27.7234C76.3297 29.5339 77.7327 31.5244 78.8947 33.6556C79.1336 34.0943 79.1239 34.6264 78.8691 35.0561C78.6141 35.4857 78.1518 35.7493 77.6522 35.75Z" fill="black"/>
<path d="M25.347 35.75C24.8475 35.7494 24.3851 35.4857 24.1301 35.0561C23.8753 34.6264 23.8655 34.0942 24.1045 33.6556C25.2663 31.5244 26.6695 29.5339 28.2861 27.7234C28.6231 27.3457 29.1361 27.1767 29.6317 27.2798C30.1272 27.3829 30.5302 27.7426 30.6887 28.2232C30.8472 28.704 30.7372 29.2328 30.4002 29.6105C28.9279 31.2588 27.6503 33.0712 26.5921 35.0114C26.3441 35.4673 25.8661 35.7509 25.347 35.75Z" fill="black"/>
<path d="M29.3434 69.7499C28.9393 69.7509 28.5543 69.5786 28.2857 69.2768C26.6691 67.4662 25.2661 65.4757 24.1043 63.3446C23.8596 62.9 23.8716 62.3586 24.1354 61.9251C24.3992 61.4917 24.8748 61.2325 25.382 61.2456C25.8893 61.2587 26.3507 61.5423 26.5917 61.9889C27.6499 63.9293 28.9275 65.7415 30.3998 67.3899C30.7716 67.8064 30.8641 68.4024 30.636 68.912C30.4079 69.4217 29.9017 69.7498 29.3434 69.7499Z" fill="black"/>
<path d="M21.8931 47.0833C21.8483 47.0838 21.8034 47.0815 21.759 47.0764C21.3849 47.0413 21.0403 46.859 20.8005 46.5697C20.561 46.2803 20.4461 45.9078 20.4813 45.5337C20.6672 43.5178 21.0559 41.5256 21.6414 39.5876C21.7883 39.103 22.1828 38.7338 22.676 38.6191C23.1692 38.5043 23.6861 38.6616 24.0317 39.0314C24.3773 39.4013 24.4994 39.9278 24.3516 40.412C23.822 42.168 23.4706 43.9729 23.3022 45.7992C23.2333 46.5265 22.6234 47.0823 21.8931 47.0833Z" fill="black"/>
<path d="M22.995 58.4167C22.3716 58.4165 21.8218 58.0087 21.6407 57.4123C21.0551 55.4743 20.6665 53.4823 20.4806 51.4662C20.4072 50.6872 20.9793 49.9963 21.7582 49.9229C22.5371 49.8495 23.2281 50.4216 23.3015 51.2006C23.4697 53.0269 23.8213 54.8318 24.3509 56.5877C24.4822 57.0172 24.4018 57.4835 24.1344 57.8443C23.8669 58.2049 23.4443 58.4174 22.995 58.4167Z" fill="black"/>
<path d="M51.4994 23.0001C46.4817 23.0032 42.2552 19.2518 41.663 14.269C41.5714 13.4919 42.1268 12.7877 42.904 12.696C43.6811 12.6044 44.3853 13.1599 44.4769 13.937C44.9038 17.4916 47.9193 20.1667 51.4994 20.1667C55.0795 20.1667 58.095 17.4916 58.5218 13.937C58.6134 13.1599 59.3177 12.6044 60.0948 12.696C60.8719 12.7877 61.4274 13.4919 61.3358 14.269C60.7438 19.2518 56.5172 23.0032 51.4994 23.0001Z" fill="black"/>
<path d="M59.9268 84.3135C59.2093 84.3127 58.6058 83.7755 58.5218 83.0629C58.095 79.5084 55.0795 76.8332 51.4994 76.8332C47.9193 76.8332 44.9038 79.5084 44.4769 83.0629C44.3853 83.84 43.6811 84.3955 42.904 84.3039C42.1268 84.2122 41.5714 83.508 41.663 82.7309C42.2582 77.7498 46.4829 73.9998 51.4994 73.9998C56.5158 73.9998 60.7406 77.7498 61.3358 82.7309C61.3797 83.1041 61.2738 83.4795 61.0411 83.7745C60.8083 84.0695 60.468 84.2599 60.0948 84.3039C60.039 84.3105 59.9829 84.3137 59.9268 84.3135Z" fill="black"/>
<path d="M59.9298 14.1036C59.4186 18.3711 55.7987 21.5834 51.5007 21.5834C47.2028 21.5834 43.5826 18.3711 43.0717 14.1036C48.6086 12.7436 54.3925 12.7436 59.9298 14.1036Z" fill="white"/>
<path d="M59.929 82.8967C54.3919 84.2567 48.6079 84.2567 43.0707 82.8967C43.5818 78.6291 47.2018 75.4168 51.4998 75.4168C55.7977 75.4168 59.4178 78.6291 59.929 82.8967Z" fill="white"/>
<path d="M51.5005 23.0001C46.4828 23.0033 42.2562 19.2518 41.6641 14.2691C41.5804 13.5594 42.0388 12.8984 42.7327 12.728C48.4929 11.3196 54.5078 11.3196 60.268 12.728C60.9621 12.8984 61.4203 13.5594 61.3367 14.2691C60.7447 19.2517 56.5182 23.0033 51.5005 23.0001ZM44.7388 15.1808C45.6559 18.1454 48.3973 20.1667 51.5005 20.1667C54.6036 20.1667 57.345 18.1454 58.2621 15.1808C53.7998 14.276 49.2013 14.276 44.7388 15.1808Z" fill="black"/>
<path d="M51.5004 85.3333C48.5459 85.3334 45.6019 84.9772 42.7327 84.2723C42.0386 84.1018 41.5804 83.4409 41.6641 82.7311C42.2592 77.75 46.484 74.0001 51.5004 74.0001C56.5169 74.0001 60.7417 77.75 61.3368 82.7311C61.4205 83.4409 60.9623 84.1018 60.2682 84.2723C57.399 84.9772 54.4552 85.3334 51.5004 85.3333ZM44.7388 81.8192C49.2011 82.724 53.7997 82.724 58.2621 81.8192C57.345 78.8547 54.6036 76.8333 51.5004 76.8333C48.3973 76.8333 45.6561 78.8547 44.7388 81.8192Z" fill="black"/>
<path d="M54.3334 58.4168C53.9577 58.417 53.5973 58.2677 53.3315 58.0019C53.0659 57.7363 52.9166 57.3759 52.9166 57V51.3334C52.9166 50.551 53.551 49.9168 54.3332 49.9168C55.1157 49.9168 55.7498 50.5512 55.7498 51.3334V57C55.75 57.3757 55.6008 57.7361 55.335 58.0019C55.0695 58.2675 54.7091 58.4168 54.3334 58.4168Z" fill="black"/>
<path d="M54.3334 47.0834C53.9577 47.0836 53.5973 46.9343 53.3315 46.6685C53.0659 46.4029 52.9166 46.0425 52.9166 45.6666V40.0001C52.9166 39.2176 53.551 38.5835 54.3332 38.5835C55.1157 38.5835 55.7498 39.2178 55.7498 40.0001V45.6666C55.75 46.0423 55.6008 46.4028 55.335 46.6685C55.0695 46.9343 54.7091 47.0834 54.3334 47.0834Z" fill="black"/>
<path d="M54.3334 69.75C53.9577 69.7501 53.5973 69.6009 53.3315 69.3351C53.0659 69.0695 52.9166 68.7091 52.9166 68.3332V62.6666C52.9166 61.8842 53.551 61.25 54.3332 61.25C55.1157 61.25 55.7498 61.8842 55.7498 62.6666V68.3332C55.75 68.7089 55.6008 69.0693 55.335 69.3351C55.0695 69.6009 54.7091 69.7501 54.3334 69.75Z" fill="black"/>
<path d="M54.3334 35.7501C53.9577 35.7502 53.5973 35.601 53.3315 35.3352C53.0659 35.0696 52.9166 34.7091 52.9166 34.3333V28.6667C52.9166 27.8843 53.551 27.2501 54.3332 27.2501C55.1157 27.2501 55.7498 27.8844 55.7498 28.6667V34.3333C55.75 34.709 55.6008 35.0694 55.335 35.3352C55.0695 35.601 54.7091 35.7502 54.3334 35.7501Z" fill="black"/>
<path d="M48.6667 35.7501C48.291 35.7502 47.9305 35.601 47.6648 35.3352C47.3991 35.0696 47.2499 34.7091 47.2499 34.3333V28.6667C47.2499 27.8843 47.8842 27.2501 48.6665 27.2501C49.4489 27.2501 50.0831 27.8844 50.0831 28.6667V34.3333C50.0833 34.709 49.934 35.0694 49.6682 35.3352C49.4028 35.601 49.0423 35.7502 48.6667 35.7501Z" fill="black"/>
<path d="M48.6667 69.75C48.291 69.7501 47.9305 69.6009 47.6648 69.3351C47.3991 69.0695 47.2499 68.7091 47.2499 68.3332V62.6666C47.2499 61.8842 47.8842 61.25 48.6665 61.25C49.4489 61.25 50.0831 61.8842 50.0831 62.6666V68.3332C50.0833 68.7089 49.934 69.0693 49.6682 69.3351C49.4028 69.6009 49.0423 69.7501 48.6667 69.75Z" fill="black"/>
<path d="M48.6667 47.0834C48.291 47.0836 47.9305 46.9343 47.6648 46.6685C47.3991 46.4029 47.2499 46.0425 47.2499 45.6666V40.0001C47.2499 39.2176 47.8842 38.5835 48.6665 38.5835C49.4489 38.5835 50.0831 39.2178 50.0831 40.0001V45.6666C50.0833 46.0423 49.934 46.4028 49.6682 46.6685C49.4028 46.9343 49.0423 47.0834 48.6667 47.0834Z" fill="black"/>
<path d="M48.6667 58.4168C48.291 58.417 47.9305 58.2677 47.6648 58.0019C47.3991 57.7363 47.2499 57.3759 47.2499 57V51.3334C47.2499 50.551 47.8842 49.9168 48.6665 49.9168C49.4489 49.9168 50.0831 50.5512 50.0831 51.3334V57C50.0833 57.3757 49.934 57.7361 49.6682 58.0019C49.4028 58.2675 49.0423 58.4168 48.6667 58.4168Z" fill="black"/>
<path d="M48.6667 35.7501H25.3484C24.5659 35.7501 23.9318 35.1158 23.9318 34.3335C23.9318 33.5511 24.5661 32.9169 25.3484 32.9169H48.6667C49.4491 32.9169 50.0833 33.5512 50.0833 34.3335C50.0833 35.1159 49.4491 35.7501 48.6667 35.7501Z" fill="black"/>
<path d="M77.6517 35.7501H54.3334C53.551 35.7501 52.9168 35.1158 52.9168 34.3335C52.9168 33.5511 53.5512 32.9169 54.3334 32.9169H77.6517C78.4342 32.9169 79.0683 33.5512 79.0683 34.3335C79.0683 35.1159 78.4342 35.7501 77.6517 35.7501Z" fill="black"/>
<path d="M48.6671 30.0835H29.3436C28.5612 30.0835 27.927 29.4491 27.927 28.6669C27.927 27.8845 28.5612 27.2503 29.3436 27.2503H48.6671C49.4495 27.2503 50.0837 27.8846 50.0837 28.6669C50.0837 29.4491 49.4495 30.0835 48.6671 30.0835Z" fill="black"/>
<path d="M73.6569 30.0835H54.3334C53.551 30.0835 52.9168 29.4491 52.9168 28.6669C52.9168 27.8845 53.5512 27.2503 54.3334 27.2503H73.6569C74.4394 27.2503 75.0735 27.8846 75.0735 28.6669C75.0735 29.4491 74.4394 30.0835 73.6569 30.0835Z" fill="black"/>
<path d="M48.6669 47.0834H21.8922C21.1098 47.0834 20.4756 46.449 20.4756 45.6668C20.4756 44.8845 21.1099 44.2502 21.8922 44.2502H48.6669C49.4494 44.2502 50.0835 44.8844 50.0835 45.6668C50.0835 46.4492 49.4494 47.0834 48.6669 47.0834Z" fill="black"/>
<path d="M81.1082 47.0834H54.3334C53.551 47.0834 52.9168 46.449 52.9168 45.6668C52.9168 44.8845 53.5512 44.2502 54.3334 44.2502H81.1082C81.8906 44.2502 82.5248 44.8844 82.5248 45.6668C82.5248 46.4492 81.8906 47.0834 81.1082 47.0834Z" fill="black"/>
<path d="M48.6667 41.4169H22.9966C22.2142 41.4169 21.58 40.7825 21.58 40.0003C21.58 39.218 22.2144 38.5836 22.9966 38.5836H48.6667C49.4491 38.5836 50.0833 39.218 50.0833 40.0003C50.0833 40.7825 49.4491 41.4169 48.6667 41.4169Z" fill="black"/>
<path d="M80.0035 41.4169H54.3334C53.551 41.4169 52.9168 40.7825 52.9168 40.0003C52.9168 39.218 53.5512 38.5836 54.3334 38.5836H80.0035C80.7859 38.5836 81.4201 39.218 81.4201 40.0003C81.4201 40.7825 80.7859 41.4169 80.0035 41.4169Z" fill="black"/>
<path d="M48.667 58.4168H22.9969C22.3734 58.4166 21.8233 58.0089 21.6419 57.4124C21.0564 55.4743 20.6677 53.4823 20.4818 51.4662C20.4448 51.0693 20.5766 50.675 20.845 50.3802C21.1135 50.0853 21.4935 49.9172 21.8922 49.9168H48.667C49.4494 49.9168 50.0836 50.5512 50.0836 51.3334C50.0836 52.1157 49.4492 52.75 48.667 52.75H23.4915C23.6332 53.7041 23.826 54.6499 24.069 55.5834H48.667C49.4494 55.5834 50.0836 56.2176 50.0836 57C50.0836 57.7824 49.4494 58.4168 48.667 58.4168Z" fill="black"/>
<path d="M80.0035 58.4168H54.3334C53.551 58.4168 52.9168 57.7826 52.9168 57.0002C52.9168 56.2177 53.5512 55.5836 54.3334 55.5836H80.0035C80.7859 55.5836 81.4201 56.2177 81.4201 57.0002C81.4201 57.7826 80.7859 58.4168 80.0035 58.4168Z" fill="black"/>
<path d="M81.1082 52.75H54.3334C53.551 52.75 52.9168 52.1159 52.9168 51.3334C52.9168 50.551 53.5512 49.9168 54.3334 49.9168H81.1082C81.8906 49.9168 82.5248 50.5512 82.5248 51.3334C82.5248 52.1157 81.8906 52.75 81.1082 52.75Z" fill="black"/>
<path d="M48.6671 69.7499H29.3436C28.5612 69.7499 27.927 69.1158 27.927 68.3333C27.927 67.5509 28.5612 66.9167 29.3436 66.9167H48.6671C49.4495 66.9167 50.0837 67.5509 50.0837 68.3333C50.0837 69.1158 49.4495 69.7499 48.6671 69.7499Z" fill="black"/>
<path d="M73.6569 69.7499H54.3334C53.551 69.7499 52.9168 69.1158 52.9168 68.3333C52.9168 67.5509 53.5512 66.9167 54.3334 66.9167H73.6569C74.4394 66.9167 75.0735 67.5509 75.0735 68.3333C75.0735 69.1158 74.4394 69.7499 73.6569 69.7499Z" fill="black"/>
<path d="M48.6667 64.0833H25.3484C24.5659 64.0833 23.9318 63.4491 23.9318 62.6667C23.9318 61.8843 24.5661 61.2501 25.3484 61.2501H48.6667C49.4491 61.2501 50.0833 61.8843 50.0833 62.6667C50.0833 63.4491 49.4491 64.0833 48.6667 64.0833Z" fill="black"/>
<path d="M77.6517 64.0833H54.3334C53.551 64.0833 52.9168 63.4491 52.9168 62.6667C52.9168 61.8843 53.5512 61.2501 54.3334 61.2501H77.6517C78.4342 61.2501 79.0683 61.8843 79.0683 62.6667C79.0683 63.4491 78.4342 64.0833 77.6517 64.0833Z" fill="black"/>
</g>
<defs>
<clipPath id="clip0">
<rect x="9" y="6" width="85" height="85" fill="white"/>
</clipPath>
</defs>
</svg>
