<svg width="420" height="134" viewBox="0 0 420 134" fill="none" xmlns="http://www.w3.org/2000/svg">
<mask id="mask0" mask-type="alpha" maskUnits="userSpaceOnUse" x="0" y="0" width="202" height="120">
<path d="M0.571243 46.0202H124.831V0H0.571243V46.0202Z" fill="#C4C4C4"/>
<path d="M0.571243 119.111H35.6881V46.0202H0.571243V119.111Z" fill="#C4C4C4"/>
<path d="M35.6881 119.111H201.818V102.869H35.6881V119.111Z" fill="#C4C4C4"/>
</mask>
<g mask="url(#mask0)">
<path fill-rule="evenodd" clip-rule="evenodd" d="M25.1969 23.9711L57.3021 0L119.428 46.697L114.026 51.4343H107.507V46.9074L57.3021 9.42032L7.09698 46.9074V51.4343H0.571243V42.3518L11.8156 33.959V17.6262H25.1969V23.9711Z" fill="#13AA57"/>
<path d="M17.1278 53.0466V106.575H136.987V113.697H16.6013C12.8716 113.697 9.84805 110.667 9.84805 106.929V49.4713C25.6624 37.9415 41.4768 26.4188 57.2912 14.8889L104.734 49.4713V64.6411C100.705 64.6411 97.4472 61.4535 97.4472 57.5121C97.4472 55.7747 97.4546 54.1378 97.4546 53.0466L57.2912 23.7696L17.1278 53.0466Z" fill="#13AA57"/>
<path d="M23.5323 106.591H195.065V113.697H23.5323V106.591Z" fill="#13AA57"/>
<path d="M189.662 103.884H195.065V116.404H189.662V103.884Z" fill="#13AA57"/>
<path fill-rule="evenodd" clip-rule="evenodd" d="M25.1969 23.9711L57.3021 0L119.428 46.697L114.026 51.4343H107.507V46.9074L57.3021 9.42032L7.09698 46.9074V51.4343H0.571243V42.3518L11.8156 33.959V17.6262H25.1969V23.9711Z" fill="#13AA57"/>
<path d="M17.1278 53.0466V106.575H136.987V113.697H16.6013C12.8716 113.697 9.84805 110.667 9.84805 106.929V49.4713C25.6624 37.9415 41.4768 26.4188 57.2912 14.8889L104.734 49.4713V64.6411C100.705 64.6411 97.4472 61.4535 97.4472 57.5121C97.4472 55.7747 97.4546 54.1378 97.4546 53.0466L57.2912 23.7696L17.1278 53.0466Z" fill="#13AA57"/>
<path d="M23.5323 106.591H195.065V113.697H23.5323V106.591Z" fill="#13AA57"/>
<path d="M189.662 103.884H195.065V116.404H189.662V103.884Z" fill="#13AA57"/>
</g>
<rect x="200.467" y="103.884" width="5.40262" height="12.5202" fill="#1279ED"/>
<rect x="205.87" y="106.591" width="194.494" height="7.10609" fill="#1279ED"/>
<path d="M407.844 112.344C405.887 118.111 401.091 121.388 401.091 125.752C401.091 129.49 404.114 132.647 407.844 132.647C411.573 132.647 414.597 129.49 414.597 125.752C414.597 121.388 409.801 118.111 407.844 112.344Z" fill="#1279ED"/>
<path d="M51.3222 67.4871C51.3222 65.9441 50.7144 64.7462 49.4989 63.8935C48.2833 63.0001 46.6017 62.5535 44.4542 62.5535C42.2256 62.5535 40.4833 62.9189 39.2272 63.6498C38.0116 64.3401 37.4038 65.2741 37.4038 66.4517C37.4038 67.4668 37.7887 68.3195 38.5586 69.0098C39.3285 69.6595 40.3009 70.1874 41.476 70.5935C42.6916 70.9995 44.3326 71.4462 46.3991 71.9335C49.4381 72.6644 51.93 73.4156 53.875 74.1871C55.8604 74.9586 57.542 76.1565 58.9196 77.7808C60.3378 79.405 61.0469 81.5774 61.0469 84.298C61.0469 89.0489 59.5072 92.5411 56.4277 94.7744C53.3887 96.9671 49.195 98.0635 43.8464 98.0635C38.9841 98.0635 34.9524 97.0077 31.7513 94.8962C28.5908 92.7441 27.0105 89.4956 27.0105 85.1508L27.0713 83.8108H35.9451L35.8843 84.7853C35.8843 86.572 36.5529 87.9932 37.89 89.0489C39.2272 90.0641 41.1113 90.5717 43.5425 90.5717C46.3789 90.5717 48.4048 90.125 49.6204 89.2317C50.8765 88.3383 51.5046 87.2014 51.5046 85.8207C51.5046 84.765 51.1196 83.9123 50.3498 83.2626C49.6204 82.5723 48.6682 82.0444 47.4931 81.6789C46.3586 81.2729 44.7581 80.8262 42.6916 80.3389C39.6121 79.5674 37.0999 78.7959 35.155 78.0244C33.21 77.2529 31.5285 76.0144 30.1103 74.3089C28.6921 72.6035 27.983 70.3092 27.983 67.4262C27.983 64.7462 28.7124 62.4723 30.1711 60.6044C31.6298 58.7365 33.5747 57.3559 36.0059 56.4626C38.4776 55.5286 41.2329 55.0617 44.2718 55.0617C48.9316 55.0617 52.7404 56.0971 55.6983 58.168C58.6563 60.1983 60.1352 63.2438 60.1352 67.3044V68.0353H51.3222V67.4871Z" fill="black"/>
<path d="M92.1516 89.2317H75.5589L72.6415 97.4544H63.5854L78.7194 55.6707H89.9028L105.037 97.4544H95.1906L92.1516 89.2317ZM78.1116 82.1053H89.6597C88.1199 77.5168 86.256 72.0553 84.068 65.7207H83.7641L78.1116 82.1053Z" fill="black"/>
<path d="M109.507 97.4544V55.6707H118.928V89.658H136.067L137.101 97.4544H109.507Z" fill="black"/>
<path d="M166.226 89.2317H149.634L146.716 97.4544H137.66L152.794 55.6707H163.977L179.112 97.4544H169.265L166.226 89.2317ZM152.186 82.1053H163.734C162.195 77.5168 160.331 72.0553 158.143 65.7207H157.839L152.186 82.1053Z" fill="black"/>
<path d="M216.411 79.5471C216.411 83.3641 215.581 86.6735 213.919 89.4753C212.258 92.2771 210.009 94.4089 207.173 95.8708C204.377 97.3326 201.257 98.0635 197.813 98.0635C194.369 98.0635 191.229 97.3326 188.392 95.8708C185.596 94.4089 183.368 92.2771 181.706 89.4753C180.045 86.6735 179.215 83.3641 179.215 79.5471V73.578C179.215 69.7611 180.045 66.4517 181.706 63.6498C183.368 60.848 185.596 58.7162 188.392 57.2544C191.229 55.7926 194.369 55.0617 197.813 55.0617C201.257 55.0617 204.377 55.7926 207.173 57.2544C210.009 58.7162 212.258 60.848 213.919 63.6498C215.581 66.4517 216.411 69.7611 216.411 73.578V79.5471ZM206.565 72.238C206.565 69.152 205.755 66.7765 204.134 65.1117C202.513 63.4062 200.406 62.5535 197.813 62.5535C195.22 62.5535 193.113 63.4062 191.492 65.1117C189.871 66.7765 189.061 69.152 189.061 72.238V80.8871C189.061 83.9732 189.871 86.3689 191.492 88.0744C193.113 89.7392 195.22 90.5717 197.813 90.5717C200.406 90.5717 202.513 89.7392 204.134 88.0744C205.755 86.3689 206.565 83.9732 206.565 80.8871V72.238Z" fill="black"/>
<path d="M228.75 83.5671V86.0644C228.75 87.2826 229.196 88.3383 230.087 89.2317C230.979 90.125 232.012 90.5717 233.187 90.5717C234.524 90.5717 235.618 90.1656 236.469 89.3535C237.36 88.5007 237.806 87.4044 237.806 86.0644V55.6707H246.984V86.308C246.984 90.0438 245.768 92.9471 243.337 95.018C240.906 97.0483 237.745 98.0635 233.856 98.0635H232.64C228.75 98.0635 225.65 97.0483 223.341 95.018C221.072 92.9877 219.937 90.0844 219.937 86.308V83.5671H228.75Z" fill="black"/>
<path d="M280.069 89.2317H263.476L260.559 97.4544H251.502L266.636 55.6707H277.82L292.954 97.4544H283.108L280.069 89.2317ZM266.029 82.1053H277.577C276.037 77.5168 274.173 72.0553 271.985 65.7207H271.681L266.029 82.1053Z" fill="black"/>
<path d="M314.624 63.2235V97.4544H305.325V63.2235H293.473V55.6707H326.416V63.2235H314.624Z" fill="black"/>
<path d="M331.256 97.4544V55.6707H360.613L359.579 63.1626H340.495V72.2989H358.303V79.7907H340.495V89.9626H359.762L360.795 97.4544H331.256Z" fill="black"/>
<path d="M387.091 61.0307C383.566 61.0307 380.872 62.3504 379.008 64.9898C377.144 67.6292 376.212 71.2432 376.212 75.8317C376.212 80.4608 377.063 84.0544 378.765 86.6126C380.507 89.1301 383.283 90.3889 387.091 90.3889C388.874 90.3889 390.637 90.1859 392.379 89.7798C394.162 89.3738 396.087 88.8053 398.153 88.0744V95.8098C396.249 96.5814 394.365 97.1498 392.501 97.5153C390.637 97.8807 388.55 98.0635 386.24 98.0635C381.783 98.0635 378.096 97.1498 375.179 95.3226C372.302 93.4547 370.174 90.8559 368.797 87.5262C367.419 84.1559 366.73 80.2374 366.73 75.7708C366.73 71.3853 367.52 67.5074 369.101 64.1371C370.681 60.7668 372.97 58.1274 375.969 56.2189C379.008 54.3104 382.715 53.3562 387.091 53.3562C389.239 53.3562 391.386 53.6404 393.534 54.2089C395.722 54.7368 397.809 55.4677 399.794 56.4017L396.816 63.8935C395.195 63.122 393.554 62.452 391.893 61.8835C390.272 61.315 388.672 61.0307 387.091 61.0307Z" fill="black"/>
</svg>
