<svg width="191" height="62" viewBox="0 0 191 62" fill="none" xmlns="http://www.w3.org/2000/svg">
<mask id="mask0" mask-type="alpha" maskUnits="userSpaceOnUse" x="0" y="0" width="92" height="56">
<path d="M0.442078 21.2929H56.8966V0H0.442078V21.2929Z" fill="#C4C4C4"/>
<path d="M0.442078 55.1111H16.3966V21.2929H0.442078V55.1111Z" fill="#C4C4C4"/>
<path d="M16.3966 55.1111H91.8739V47.596H16.3966V55.1111Z" fill="#C4C4C4"/>
</mask>
<g mask="url(#mask0)">
<path fill-rule="evenodd" clip-rule="evenodd" d="M11.6302 11.0911L26.2164 0L54.4421 21.6061L51.9875 23.798H49.026V21.7034L26.2164 4.35865L3.40689 21.7034V23.798H0.442078V19.5956L5.55069 15.7124V8.15542H11.6302V11.0911Z" fill="#13AA57"/>
<path d="M7.96417 24.5439V49.3109H62.4194V52.6061H7.72497C6.03046 52.6061 4.65678 51.2041 4.65678 49.4747V22.8897C11.8417 17.555 19.0266 12.2236 26.2115 6.88889L47.7662 22.8897V29.9086C45.9358 29.9086 44.4554 28.4337 44.4554 26.6101C44.4554 25.8062 44.4588 25.0488 44.4588 24.5439L26.2115 10.9979L7.96417 24.5439Z" fill="#13AA57"/>
<path d="M10.8739 49.3182H88.8057V52.6061H10.8739V49.3182Z" fill="#13AA57"/>
<path d="M86.3512 48.0657H88.8057V53.8586H86.3512V48.0657Z" fill="#13AA57"/>
<path fill-rule="evenodd" clip-rule="evenodd" d="M11.6302 11.0911L26.2164 0L54.4421 21.6061L51.9875 23.798H49.026V21.7034L26.2164 4.35865L3.40689 21.7034V23.798H0.442078V19.5956L5.55069 15.7124V8.15542H11.6302V11.0911Z" fill="#13AA57"/>
<path d="M7.96417 24.5439V49.3109H62.4194V52.6061H7.72497C6.03046 52.6061 4.65678 51.2041 4.65678 49.4747V22.8897C11.8417 17.555 19.0266 12.2236 26.2115 6.88889L47.7662 22.8897V29.9086C45.9358 29.9086 44.4554 28.4337 44.4554 26.6101C44.4554 25.8062 44.4588 25.0488 44.4588 24.5439L26.2115 10.9979L7.96417 24.5439Z" fill="#13AA57"/>
<path d="M10.8739 49.3182H88.8057V52.6061H10.8739V49.3182Z" fill="#13AA57"/>
<path d="M86.3512 48.0657H88.8057V53.8586H86.3512V48.0657Z" fill="#13AA57"/>
</g>
<rect x="91.2606" y="48.0657" width="2.45455" height="5.79293" fill="#1279ED"/>
<rect x="93.7147" y="49.3181" width="88.3636" height="3.2879" fill="#1279ED"/>
<path d="M185.477 51.9797C184.588 54.6483 182.409 56.1646 182.409 58.1839C182.409 59.9132 183.782 61.3737 185.477 61.3737C187.171 61.3737 188.545 59.9132 188.545 58.1839C188.545 56.1646 186.366 54.6483 185.477 51.9797Z" fill="#1279ED"/>
<path d="M23.4996 31.2254C23.4996 30.5115 23.2234 29.9573 22.6711 29.5627C22.1189 29.1494 21.3549 28.9427 20.3792 28.9427C19.3667 28.9427 18.5751 29.1118 18.0044 29.45C17.4522 29.7694 17.176 30.2015 17.176 30.7463C17.176 31.216 17.3509 31.6106 17.7007 31.93C18.0505 32.2306 18.4923 32.4748 19.0261 32.6627C19.5784 32.8506 20.324 33.0573 21.2629 33.2827C22.6435 33.6209 23.7757 33.9685 24.6593 34.3254C25.5614 34.6824 26.3254 35.2367 26.9513 35.9882C27.5956 36.7397 27.9177 37.7448 27.9177 39.0036C27.9177 41.2018 27.2182 42.8176 25.8191 43.8509C24.4384 44.8654 22.5331 45.3727 20.1031 45.3727C17.894 45.3727 16.0623 44.8842 14.608 43.9073C13.1721 42.9115 12.4541 41.4085 12.4541 39.3982L12.4817 38.7782H16.5133L16.4857 39.2291C16.4857 40.0557 16.7894 40.7133 17.3969 41.2018C18.0044 41.6715 18.8605 41.9064 19.965 41.9064C21.2536 41.9064 22.1741 41.6997 22.7264 41.2864C23.2971 40.873 23.5824 40.347 23.5824 39.7082C23.5824 39.2197 23.4075 38.8251 23.0577 38.5245C22.7264 38.2051 22.2938 37.9609 21.7599 37.7918C21.2444 37.6039 20.5173 37.3973 19.5784 37.1718C18.1793 36.8148 17.038 36.4579 16.1543 36.1009C15.2707 35.7439 14.5067 35.1709 13.8624 34.3818C13.2181 33.5927 12.8959 32.5312 12.8959 31.1973C12.8959 29.9573 13.2273 28.9051 13.89 28.0409C14.5527 27.1767 15.4364 26.5379 16.5409 26.1245C17.6639 25.6924 18.9157 25.4763 20.2964 25.4763C22.4134 25.4763 24.1439 25.9554 25.4877 26.9136C26.8316 27.853 27.5035 29.2621 27.5035 31.1409V31.4791H23.4996V31.2254Z" fill="black"/>
<path d="M42.0494 41.2864H34.5109L33.1855 45.0909H29.071L35.9468 25.7582H41.0277L47.9035 45.0909H43.4301L42.0494 41.2864ZM35.6707 37.9891H40.9173C40.2177 35.866 39.3709 33.3391 38.3768 30.4082H38.2388L35.6707 37.9891Z" fill="black"/>
<path d="M49.9344 45.0909V25.7582H54.2146V41.4836H62.0016L62.471 45.0909H49.9344Z" fill="black"/>
<path d="M75.7036 41.2864H68.165L66.8396 45.0909H62.7252L69.601 25.7582H74.6819L81.5577 45.0909H77.0843L75.7036 41.2864ZM69.3248 37.9891H74.5714C73.8719 35.866 73.025 33.3391 72.031 30.4082H71.8929L69.3248 37.9891Z" fill="black"/>
<path d="M98.504 36.8054C98.504 38.5715 98.1266 40.1027 97.3719 41.3991C96.6171 42.6954 95.5954 43.6818 94.3067 44.3582C93.0365 45.0345 91.619 45.3727 90.0542 45.3727C88.4895 45.3727 87.0628 45.0345 85.7741 44.3582C84.5039 43.6818 83.4914 42.6954 82.7366 41.3991C81.9819 40.1027 81.6045 38.5715 81.6045 36.8054V34.0436C81.6045 32.2776 81.9819 30.7463 82.7366 29.45C83.4914 28.1536 84.5039 27.1673 85.7741 26.4909C87.0628 25.8145 88.4895 25.4763 90.0542 25.4763C91.619 25.4763 93.0365 25.8145 94.3067 26.4909C95.5954 27.1673 96.6171 28.1536 97.3719 29.45C98.1266 30.7463 98.504 32.2776 98.504 34.0436V36.8054ZM94.0306 33.4236C94.0306 31.9957 93.6624 30.8967 92.9261 30.1263C92.1897 29.3373 91.2324 28.9427 90.0542 28.9427C88.8761 28.9427 87.9188 29.3373 87.1824 30.1263C86.4461 30.8967 86.0779 31.9957 86.0779 33.4236V37.4254C86.0779 38.8533 86.4461 39.9618 87.1824 40.7509C87.9188 41.5212 88.8761 41.9064 90.0542 41.9064C91.2324 41.9064 92.1897 41.5212 92.9261 40.7509C93.6624 39.9618 94.0306 38.8533 94.0306 37.4254V33.4236Z" fill="black"/>
<path d="M104.11 38.6654V39.8209C104.11 40.3845 104.312 40.873 104.717 41.2864C105.122 41.6997 105.592 41.9064 106.126 41.9064C106.733 41.9064 107.23 41.7185 107.617 41.3427C108.022 40.9482 108.224 40.4409 108.224 39.8209V25.7582H112.394V39.9336C112.394 41.6621 111.842 43.0054 110.737 43.9636C109.633 44.903 108.197 45.3727 106.429 45.3727H105.877C104.11 45.3727 102.702 44.903 101.652 43.9636C100.621 43.0242 100.106 41.6809 100.106 39.9336V38.6654H104.11Z" fill="black"/>
<path d="M127.425 41.2864H119.887L118.561 45.0909H114.447L121.323 25.7582H126.404L133.279 45.0909H128.806L127.425 41.2864ZM121.046 37.9891H126.293C125.594 35.866 124.747 33.3391 123.753 30.4082H123.615L121.046 37.9891Z" fill="black"/>
<path d="M143.125 29.2527V45.0909H138.9V29.2527H133.515V25.7582H148.482V29.2527H143.125Z" fill="black"/>
<path d="M150.681 45.0909V25.7582H164.018L163.549 29.2245H154.878V33.4518H162.969V36.9182H154.878V41.6245H163.632L164.101 45.0909H150.681Z" fill="black"/>
<path d="M176.048 28.2382C174.447 28.2382 173.223 28.8488 172.376 30.07C171.529 31.2912 171.106 32.9633 171.106 35.0864C171.106 37.2282 171.492 38.8909 172.265 40.0745C173.057 41.2394 174.318 41.8218 176.048 41.8218C176.858 41.8218 177.659 41.7279 178.451 41.54C179.261 41.3521 180.135 41.0891 181.074 40.7509V44.33C180.209 44.687 179.353 44.95 178.506 45.1191C177.659 45.2882 176.711 45.3727 175.662 45.3727C173.637 45.3727 171.962 44.95 170.636 44.1045C169.329 43.2403 168.363 42.0379 167.737 40.4973C167.111 38.9379 166.798 37.1248 166.798 35.0582C166.798 33.0291 167.157 31.2348 167.875 29.6754C168.593 28.116 169.633 26.8948 170.995 26.0118C172.376 25.1288 174.06 24.6873 176.048 24.6873C177.024 24.6873 178 24.8188 178.976 25.0818C179.97 25.326 180.918 25.6642 181.82 26.0963L180.467 29.5627C179.73 29.2057 178.985 28.8957 178.23 28.6327C177.494 28.3697 176.766 28.2382 176.048 28.2382Z" fill="black"/>
</svg>
