<svg width="20" height="20" viewBox="0 0 20 20" fill="none" xmlns="http://www.w3.org/2000/svg">
<g opacity="0.5">
<g clip-path="url(#clip0)">
<path d="M19.6116 15.9032L17.3944 14.4249L15.4233 13.1112C15.0429 12.8581 14.5317 12.9411 14.2509 13.3015L13.0313 14.8694C12.7693 15.2097 12.298 15.3074 11.9223 15.0994C11.0948 14.6391 10.1161 14.2057 7.95686 12.0436C5.79759 9.88157 5.36138 8.90572 4.90104 8.07815C4.69303 7.70245 4.7908 7.23117 5.13103 6.96922L6.69895 5.74958C7.05937 5.4688 7.14238 4.9576 6.8893 4.57717L5.61587 2.66684L4.09726 0.388902C3.83878 0.00117267 3.32137 -0.115232 2.92176 0.124413L1.17038 1.1751C0.697063 1.45397 0.349137 1.90428 0.19867 2.43267C-0.28027 4.17886 -0.376831 8.03088 5.79653 14.2042C11.9699 20.3776 15.8216 20.2807 17.5678 19.8018C18.0962 19.6513 18.5465 19.3034 18.8253 18.8301L19.876 17.0787C20.1157 16.6791 19.9993 16.1617 19.6116 15.9032Z" fill="#424753"/>
<path d="M11.3791 3.1034C14.6151 3.10699 17.2375 5.72938 17.2411 8.9654C17.2411 9.15583 17.3955 9.31024 17.5859 9.31024C17.7764 9.31024 17.9308 9.15587 17.9308 8.9654C17.9268 5.34868 14.9959 2.41774 11.3791 2.41376C11.1887 2.41376 11.0343 2.56813 11.0343 2.7586C11.0343 2.94899 11.1886 3.1034 11.3791 3.1034Z" fill="#424753"/>
<path d="M11.3791 5.17235C13.4729 5.17481 15.1697 6.87158 15.1721 8.96539C15.1721 9.15581 15.3265 9.31023 15.517 9.31023C15.7074 9.31023 15.8618 9.15585 15.8618 8.96539C15.859 6.49085 13.8537 4.48552 11.3791 4.48267C11.1887 4.48267 11.0342 4.63704 11.0342 4.82751C11.0342 5.01797 11.1886 5.17235 11.3791 5.17235Z" fill="#424753"/>
<path d="M11.3791 7.24128C12.3309 7.24241 13.1021 8.01365 13.1032 8.9654C13.1032 9.15582 13.2576 9.31024 13.4481 9.31024C13.6385 9.31024 13.7929 9.15586 13.7929 8.9654C13.7914 7.63295 12.7116 6.55316 11.3791 6.55164C11.1887 6.55164 11.0343 6.70601 11.0343 6.89647C11.0343 7.0869 11.1886 7.24128 11.3791 7.24128Z" fill="#424753"/>
</g>
</g>
<defs>
<clipPath id="clip0">
<rect width="20" height="20" fill="white"/>
</clipPath>
</defs>
</svg>
