<svg width="20" height="20" viewBox="0 0 20 20" fill="none" xmlns="http://www.w3.org/2000/svg">
<g opacity="0.5">
<rect y="3" width="20" height="13" rx="2" fill="#424753"/>
<path d="M8.10435 13H3V11.8317L5.83675 7.52736H3.06722V6H8.03265V7.16347L5.1959 11.4726H8.10435V13Z" fill="white"/>
<path d="M9.04545 13V6H10.8246V13H9.04545Z" fill="white"/>
<path d="M17 8.2264C17 9.00844 16.7834 9.61332 16.3502 10.041C15.92 10.4656 15.3075 10.6778 14.5128 10.6778H14.0154V13H12.2452V6H14.5128C15.3404 6 15.9618 6.19311 16.3771 6.57934C16.7924 6.96557 17 7.51459 17 8.2264ZM14.0154 9.13612H14.338C14.6039 9.13612 14.8146 9.05632 14.9699 8.89672C15.1283 8.73712 15.2074 8.51687 15.2074 8.23598C15.2074 7.76357 14.9624 7.52736 14.4725 7.52736H14.0154V9.13612Z" fill="white"/>
</g>
</svg>
