<svg width="20" height="20" viewBox="0 0 20 20" fill="none" xmlns="http://www.w3.org/2000/svg">
<path fill-rule="evenodd" clip-rule="evenodd" d="M19.124 16.1067C18.528 14.9173 16.57 14.2007 13.86 13.208C13.4767 13.068 13.0787 12.922 12.6667 12.768V10.6127C12.9373 10.3167 13.6227 9.43533 13.69 8.06667C13.8787 7.92267 14.0293 7.65067 14.116 7.282C14.254 6.69667 14.1813 6.00067 13.75 5.61333C13.7793 5.53733 13.8153 5.44733 13.8487 5.362C14.1673 4.55867 14.7613 3.062 14.5293 1.90067C14.2667 0.587333 12.3553 0 10.5773 0C9.27733 0 7.696 0.325333 7.24467 1.22267C6.74467 1.26867 6.36267 1.46667 6.106 1.81267C5.40133 2.762 5.92333 4.484 6.20333 5.40867C6.22267 5.474 6.244 5.54267 6.26133 5.602C5.81933 5.98667 5.74333 6.69067 5.88333 7.282C5.97 7.65067 6.12067 7.92267 6.30933 8.06667C6.37533 9.40933 7.04533 10.2007 7.33267 10.4813V12.768C6.92 12.922 6.52133 13.0687 6.13733 13.2087C3.42733 14.2007 1.46933 14.9173 0.875333 16.1067C0.00933339 17.8387 0 19.5927 0 19.6667C0 19.85 0.148667 20 0.332667 20H19.6667C19.8507 20 20 19.85 20 19.6667C20 19.5927 19.99 17.8387 19.124 16.1067Z" fill="#58595B" fill-opacity="0.5"/>
</svg>
